<?xml version="1.0" encoding="UTF-8" standalone="no"?>
<!-- Created with Inkscape (http://www.inkscape.org/) -->

<svg
   xmlns:dc="http://purl.org/dc/elements/1.1/"
   xmlns:cc="http://creativecommons.org/ns#"
   xmlns:rdf="http://www.w3.org/1999/02/22-rdf-syntax-ns#"
   xmlns:svg="http://www.w3.org/2000/svg"
   xmlns="http://www.w3.org/2000/svg"
   xmlns:sodipodi="http://sodipodi.sourceforge.net/DTD/sodipodi-0.dtd"
   xmlns:inkscape="http://www.inkscape.org/namespaces/inkscape"
   width="600mm"
   height="600mm"
   viewBox="0 0 600 600"
   version="1.1"
   id="svg8"
   sodipodi:docname="construction-pg.svg"
   inkscape:version="0.92.4 (5da689c313, 2019-01-14)">
  <defs
     id="defs2" />
  <sodipodi:namedview
     id="base"
     pagecolor="#ffffff"
     bordercolor="#666666"
     borderopacity="1.0"
     inkscape:pageopacity="0.0"
     inkscape:pageshadow="2"
     inkscape:zoom="0.24748737"
     inkscape:cx="1135.899"
     inkscape:cy="1237.4673"
     inkscape:document-units="mm"
     inkscape:current-layer="layer1"
     showgrid="false"
     inkscape:window-width="1866"
     inkscape:window-height="1016"
     inkscape:window-x="54"
     inkscape:window-y="27"
     inkscape:window-maximized="1" />
  <metadata
     id="metadata5">
    <rdf:RDF>
      <cc:Work
         rdf:about="">
        <dc:format>image/svg+xml</dc:format>
        <dc:type
           rdf:resource="http://purl.org/dc/dcmitype/StillImage" />
        <dc:title></dc:title>
      </cc:Work>
    </rdf:RDF>
  </metadata>
  <g
     inkscape:label="Layer 1"
     inkscape:groupmode="layer"
     id="layer1"
     transform="translate(0,303)">
    <path
       style="fill:none;stroke:#000000;stroke-width:3.59756517;stroke-linecap:butt;stroke-linejoin:round;stroke-miterlimit:4;stroke-dasharray:none;stroke-opacity:1"
       d="m 219.15355,-45.768344 c 1.15411,14.368576 1.65802,28.403435 -9.13422,36.6518276 C 136.40182,-27.478453 117.05831,4.5481553 111.07195,27.535207 100.15763,72.753003 82.591472,119.64863 90.521268,156.20605 c 58.557592,39.98824 93.464322,25.70519 147.990102,33.44629 4.04526,7.04726 35.54083,6.3092 46.29257,-2.52064 l 14.26859,4.16645 4.39025,6.87683 2.86018,8.58626 c 2.80614,8.62296 7.94422,7.02145 9.31787,0.22788 l -6.67345,-20.37007 -22.07292,-10.13798 22.07292,10.13798 6.67345,20.37007 c 10.51722,16.52561 13.40255,4.08722 12.03948,-4.46676 l -7.29643,-19.8024 -19.78956,-10.13741 19.78956,10.13741 7.29643,19.8024 c 6.411,14.36434 14.37189,21.08398 13.024,-0.0457 l -4.33632,-18.19553 -23.59499,-17.15607 23.59499,17.15607 8.10404,25.08823 c 2.05267,6.76657 8.97998,12.86121 10.82392,-1.56758 l -6.7497,-30.53897 -25.11723,-12.4778 v 0 c -3.25234,-3.72033 -60.77449,-11.50365 -69.37934,-6.41975 -25.46042,-1.90887 -9.37004,0.1624 -51.64142,-8.39644 -12.07549,-6.2534 -35.02154,-14.36943 -60.1297,-18.71609 9.08065,-14.74311 6.75212,-42.297112 6.85035,-67.844375 3.64498,24.752561 5.14054,51.742215 15.98433,70.964125"
       id="path986"
       inkscape:connector-curvature="0"
       sodipodi:nodetypes="ccccccccccccccccccccccccccccccccc" />
    <g
       id="g980"
       transform="matrix(0.18917127,0,0,0.18405283,75.42387,-299.07301)"
       style="fill:#f8f5f5;fill-opacity:1">
      <g
         style="display:inline;fill:#f8f5f5;fill-opacity:1"
         inkscape:label="logo"
         id="layer1-3" />
      <g
         style="display:inline;fill:#f8f5f5;fill-opacity:1"
         inkscape:label="logo 1"
         id="layer2">
        <path
           inkscape:connector-curvature="0"
           id="path823"
           d="m 370,1638 c 0,0 440,-458 1022,-324 0,0 -70,-1194 -86,-1192 0,0 -94,130 -878,204 0,0 142.1505,630.55426 -58,1312 z"
           style="fill:#f8f5f5;fill-opacity:1;stroke:#000000;stroke-width:18.79999924;stroke-linecap:butt;stroke-linejoin:round;stroke-miterlimit:4;stroke-dasharray:none;stroke-opacity:1" />
        <path
           sodipodi:nodetypes="cc"
           inkscape:connector-curvature="0"
           id="path825"
           d="M 988.4243,969.2271 C 827.5517,953.95134 748.31759,962.83925 697.53997,1062.1733"
           style="fill:#f8f5f5;stroke:#000000;stroke-width:19.60000038;stroke-linecap:round;stroke-linejoin:miter;stroke-miterlimit:4;stroke-dasharray:none;stroke-opacity:1;fill-opacity:1" />
      </g>
      <ellipse
         transform="matrix(0.99978058,0.02094714,-0.02733986,0.9996262,0,0)"
         ry="29.681429"
         rx="22.364071"
         cy="488.03781"
         cx="1066.1592"
         id="path827"
         style="opacity:1;fill:#f8f5f5;fill-opacity:1;stroke:#000000;stroke-width:18.70936775;stroke-linecap:round;stroke-linejoin:round;stroke-miterlimit:4;stroke-dasharray:none;stroke-dashoffset:0;stroke-opacity:1" />
      <ellipse
         transform="rotate(11.321591)"
         ry="29.923609"
         rx="22.145433"
         cy="384.79456"
         cx="834.19385"
         id="path829"
         style="opacity:1;fill:#f8f5f5;fill-opacity:1;stroke:#000000;stroke-width:20.56396675;stroke-linecap:round;stroke-linejoin:round;stroke-miterlimit:4;stroke-dasharray:none;stroke-dashoffset:0;stroke-opacity:1" />
      <path
         inkscape:connector-curvature="0"
         id="path833"
         d="m 615.5,525.5 c 0,0 75,-128.5 176,-42.5"
         style="fill:#f8f5f5;stroke:#000000;stroke-width:18;stroke-linecap:round;stroke-linejoin:miter;stroke-miterlimit:4;stroke-dasharray:none;stroke-opacity:1;fill-opacity:1" />
      <path
         inkscape:connector-curvature="0"
         id="path835"
         d="m 990.5,458.5 c 0,0 35.5,-57 174.5,-26.5"
         style="fill:#f8f5f5;stroke:#000000;stroke-width:18;stroke-linecap:round;stroke-linejoin:miter;stroke-miterlimit:4;stroke-dasharray:none;stroke-opacity:1;fill-opacity:1" />
    </g>
    <path
       style="fill:#ececec;stroke:#000000;stroke-width:2.64977241;stroke-linecap:butt;stroke-linejoin:round;stroke-miterlimit:4;stroke-dasharray:none;stroke-opacity:1"
       d="M 149.07886,218.14379 278.63996,260.04708 474.04399,238.09774 503.77912,58.51181 304.12678,56.516422 278.63996,238.09774 149.07886,196.19429 Z"
       id="path988"
       inkscape:connector-curvature="0" />
    <path
       style="fill:none;stroke:#000000;stroke-width:0.94780445;stroke-linecap:butt;stroke-linejoin:round;stroke-miterlimit:4;stroke-dasharray:none;stroke-opacity:1"
       d="m 278.63996,260.04708 c -2.93988,-14.5705 0.67271,-19.01541 0,-21.94938 0,0 0,2e-5 0,0 197.97003,-16.67747 197.97003,-16.67747 197.97003,-16.67747"
       id="path990"
       inkscape:connector-curvature="0"
       sodipodi:nodetypes="ccc" />
    <path
       style="fill:none;stroke:#000000;stroke-width:1.89355922;stroke-linecap:butt;stroke-linejoin:round;stroke-miterlimit:4;stroke-dasharray:none;stroke-opacity:1"
       d="m 149.07886,196.19429 28.07357,-10.83352"
       id="path992"
       inkscape:connector-curvature="0" />
    <path
       style="fill:none;stroke:#000000;stroke-width:3.18991828;stroke-linecap:butt;stroke-linejoin:miter;stroke-miterlimit:4;stroke-dasharray:none;stroke-opacity:1"
       d="m 272.38506,-60.541606 c 5.08964,18.664503 8.47469,46.504495 17.29904,45.082567 25.46337,-12.100436 50.95701,-9.416073 66.05274,-10.894557 36.11953,2.047374 44.34105,50.257322 47.42169,62.206153 l 5.37713,20.506656"
       id="path1074"
       inkscape:connector-curvature="0"
       sodipodi:nodetypes="ccccc" />
    <path
       style="fill:none;stroke:#000000;stroke-width:2.57843184;stroke-linecap:butt;stroke-linejoin:miter;stroke-miterlimit:4;stroke-dasharray:none;stroke-opacity:1"
       d="m 354.92169,55.901338 c -0.45533,-2.977891 -1.10567,-5.456161 -0.0947,-12.184761"
       id="path1076"
       inkscape:connector-curvature="0"
       sodipodi:nodetypes="cc" />
    <path
       style="fill:#f8f5f5;stroke:none;stroke-width:4.04061031;fill-opacity:1;stroke-opacity:1"
       d="m 915.65272,1861.2063 c -19.30527,-9.8423 -61.68262,-14.9187 -151.37835,-18.1336 -199.11883,-7.1366 -268.08374,-24.0117 -384.63876,-94.1176 l -31.08537,-18.6974 -2.80695,-26.211 c -4.41114,-41.1905 0.77504,-114.7541 12.13127,-172.0764 15.85439,-80.0274 73.81276,-295.7615 87.12355,-324.2934 6.48865,-13.9086 21.02592,-35.0459 32.30504,-46.972 19.49315,-20.6111 66.64982,-50.4131 71.73069,-45.3322 1.31062,1.3106 0.27334,9.4241 -2.30504,18.0301 -10.26568,34.2638 -1.98706,37.7959 26.79984,11.4343 10.46089,-9.5796 27.78847,-24.4529 38.50572,-33.0518 l 19.48593,-15.6343 49.20445,4.6566 c 27.06244,2.5611 64.14569,7.8068 82.40719,11.657 l 33.20274,7.0004 10.62705,-9.92 c 22.29087,-20.8078 30.16247,-46.0965 31.38633,-100.8337 l 0.67761,-30.30461 51.4111,-17.28473 c 56.84024,-19.11002 127.95414,-35.40518 132.62204,-30.38921 1.6517,1.77498 7.9819,25.04653 14.0669,51.71455 17.8464,78.2136 33.0111,111.1168 51.212,111.1168 4.5701,0 21.2289,-4.6604 37.0195,-10.3564 44.5804,-16.081 79.6204,-22.0364 155.1117,-26.3628 50.8692,-2.9153 74.3462,-2.7468 86.8732,0.6233 38.2939,10.3021 64.7318,30.3799 89.0253,67.6087 25.5582,39.1667 37.121,69.3811 59.3131,154.9886 l 19.7374,76.1382 -73.4346,-0.036 c -40.3891,-0.02 -82.9806,-1.1817 -94.6479,-2.5831 l -21.2132,-2.5481 v -21.6605 c 0,-16.5588 -1.4272,-21.6593 -6.0609,-21.6593 -4.6528,0 -6.0609,5.163 -6.0609,22.2234 v 22.2233 h -94.8774 -94.8773 l -1.9495,9.0914 c -1.0723,5.0003 -13.2356,90.4679 -27.0298,189.928 l -25.0802,180.8367 -54.8696,-0.5839 c -30.1783,-0.3212 -71.84338,-0.3107 -92.58917,0.024 -54.09908,0.8687 -144.79215,-18.0043 -210.77794,-43.8638 -27.7792,-10.8865 -61.42868,-22.802 -74.77664,-26.4789 l -24.26901,-6.6853 -11.36554,-26.3207 c -16.60351,-38.4509 -25.77664,-78.2331 -38.75853,-168.0886 -6.35923,-44.0162 -12.59376,-81.0608 -13.85451,-82.3216 -1.26074,-1.2607 -4.93389,-1.2785 -8.16253,-0.04 -4.85643,1.8636 -6.13518,19.5704 -7.4041,102.5246 -1.48435,97.0369 -1.89307,101.3025 -12.66846,132.2131 -6.12405,17.5676 -9.68915,33.1393 -7.92245,34.6036 1.76669,1.4644 22.30406,6.8066 45.63858,11.8716 50.8562,11.0388 121.45593,33.2387 157.5838,49.5518 14.59436,6.5899 55.88685,18.2511 92.93403,26.2449 65.84546,14.2078 67.79453,14.3804 157.5838,13.954 50.00257,-0.2376 93.15127,1.0063 95.88617,2.7638 3.803,2.444 3.9921,8.8523 0.8042,27.2491 -2.2925,13.2295 -5.1751,33.0838 -6.4057,44.1206 -1.2978,11.6396 -5.0294,22.2249 -8.8854,25.2055 -27.2038,21.0269 -120.98663,29.1839 -152.25448,13.2426 z"
       id="path1080"
       inkscape:connector-curvature="0"
       transform="matrix(0.26458333,0,0,0.26458333,0,-303)" />
    <path
       style="fill:#f8f5f5;stroke:none;stroke-width:4.04061031;fill-opacity:1"
       d="m 820.84291,1962.8465 c -121.11729,-39.3739 -223.8498,-73.0591 -228.29447,-74.856 -6.50652,-2.6305 -0.99505,-6.0187 28.28427,-17.3878 l 36.36549,-14.1207 78.7919,2.6773 c 109.30241,3.7141 151.39017,8.4053 173.6045,19.3504 15.87339,7.8209 24.26968,8.9576 62.77119,8.498 32.78141,-0.3913 51.29431,-2.7338 70.53721,-8.9252 14.3498,-4.6171 26.5225,-7.9627 27.0505,-7.4348 0.9017,0.9018 -15.9364,122.6664 -20.915,151.2466 -1.2582,7.2226 -3.5689,12.999 -5.135,12.8365 -1.566,-0.1625 -101.9433,-32.5104 -223.06059,-71.8843 z"
       id="path1082"
       inkscape:connector-curvature="0"
       transform="matrix(0.26458333,0,0,0.26458333,0,-303)" />
    <path
       style="fill:#000000;stroke:none;stroke-width:0.71428573;fill-opacity:1"
       d="m 811.73926,403.5771 c -4.2825,-2.31212 -5.41984,-12.254 -2.13781,-18.68731 5.35129,-10.48939 14.39627,-7.82613 14.39627,4.23894 0,9.3664 -6.80827,17.39093 -12.25846,14.44837 z"
       id="path1084"
       inkscape:connector-curvature="0"
       transform="matrix(0.26458333,0,0,0.26458333,0,-303)" />
    <path
       style="fill:#000000;stroke:#000000;stroke-width:3.36000004;stroke-opacity:1;stroke-miterlimit:4;stroke-dasharray:none"
       d="m 811.60937,403.14984 c -3.00971,-1.7495 -4.26877,-9.6948 -2.52923,-15.96066 1.06033,-3.81934 5.49822,-8.23039 8.28047,-8.23039 2.28225,0 4.71529,2.13011 5.5412,4.85129 0.27327,0.90035 0.4877,3.54872 0.47653,5.88526 -0.025,5.23423 -2.35948,10.34146 -5.78504,12.65631 -2.61779,1.769 -3.99727,1.95301 -5.98393,0.79819 z"
       id="path1086"
       inkscape:connector-curvature="0"
       transform="matrix(0.26458333,0,0,0.26458333,0,-303)" />
    <path
       style="fill:#000000;stroke:#000000;stroke-width:1.848189;fill-opacity:1;stroke-opacity:1;stroke-miterlimit:4;stroke-dasharray:none"
       d="m 1032.9944,381.45933 c -2.7694,-2.5666 -3.9967,-6.07147 -3.9967,-11.41395 0,-10.57206 7.4367,-17.45 13.1462,-12.15855 3.9372,3.64881 5.4235,10.39829 3.6405,16.53162 -2.2919,7.88386 -8.3073,11.19532 -12.79,7.04088 z"
       id="path1090"
       inkscape:connector-curvature="0"
       transform="matrix(0.26458333,0,0,0.26458333,0,-303)" />
    <path
       style="fill:#a0a0a0;stroke:none;stroke-width:2.02030516"
       d="m 813.40423,1961.6741 c -127.49097,-41.283 -231.81447,-75.5721 -231.83001,-76.1981 -0.0155,-0.626 17.16952,-7.7176 38.189,-15.7592 l 38.21724,-14.621 82.49599,3.1557 c 117.68657,4.5019 151.0168,7.7692 163.13323,15.9916 28.17629,19.121 110.66102,17.1056 156.37002,-3.8207 6.1025,-2.7938 11.3757,-4.7993 11.7183,-4.4567 0.5498,0.5497 -19.5761,147.7561 -22.5033,164.5952 -0.6277,3.6113 -1.782,6.4776 -2.565,6.3696 -0.783,-0.108 -105.7345,-33.9734 -233.22547,-75.2564 z"
       id="path1092"
       inkscape:connector-curvature="0"
       transform="matrix(0.26458333,0,0,0.26458333,0,-303)" />
  </g>
</svg>
